HIERARCHY
ROOT RootJoint
{
    OFFSET   0.000000   0.000000   0.000000
    CHANNELS 6 Xposition Yposition Zposition Xrotation Yrotation Zrotation
    JOINT lHip
    {
        OFFSET   0.100000  -0.051395   0.000000
        CHANNELS 3 Xrotation Yrotation Zrotation
        JOINT lKnee
        {
            OFFSET   0.000000  -0.410000   0.000000
            CHANNELS 3 Xrotation Yrotation Zrotation
            JOINT lAnkle
            {
                OFFSET   0.000000  -0.390000   0.000000
                CHANNELS 3 Xrotation Yrotation Zrotation
                JOINT lToeJoint
                {
                    OFFSET   0.000000  -0.050000   0.130000
                    CHANNELS 3 Xrotation Yrotation Zrotation
                    End Site
                    {
                        OFFSET   0.010000   0.002000   0.060000
                    }
                }
            }
        }
    }
    JOINT rHip
    {
        OFFSET  -0.100000  -0.051395   0.000000
        CHANNELS 3 Xrotation Yrotation Zrotation
        JOINT rKnee
        {
            OFFSET   0.000000  -0.410000   0.000000
            CHANNELS 3 Xrotation Yrotation Zrotation
            JOINT rAnkle
            {
                OFFSET   0.000000  -0.390000   0.000000
                CHANNELS 3 Xrotation Yrotation Zrotation
                JOINT rToeJoint
                {
                    OFFSET   0.000000  -0.050000   0.130000
                    CHANNELS 3 Xrotation Yrotation Zrotation
                    End Site
                    {
                        OFFSET  -0.010000   0.002000   0.060000
                    }
                }
            }
        }
    }
    JOINT pelvis_lowerback
    {
        OFFSET   0.000000   0.093605   0.000000
        CHANNELS 3 Xrotation Yrotation Zrotation
        JOINT lowerback_torso
        {
            OFFSET   0.000000   0.100000   0.000000
            CHANNELS 3 Xrotation Yrotation Zrotation
            JOINT torso_head
            {
                OFFSET   0.000000   0.282350   0.000000
                CHANNELS 3 Xrotation Yrotation Zrotation
                End Site
                {
                    OFFSET   0.000000   0.192650   0.000000
                }
            }
            JOINT lTorso_Clavicle
            {
                OFFSET   0.001000   0.157500   0.000000
                CHANNELS 3 Xrotation Yrotation Zrotation
                JOINT lShoulder
                {
                    OFFSET   0.117647   0.000000   0.000000
                    CHANNELS 3 Xrotation Yrotation Zrotation
                    JOINT lElbow
                    {
                        OFFSET   0.245000   0.000000   0.000000
                        CHANNELS 3 Xrotation Yrotation Zrotation
                        JOINT lWrist
                        {
                            OFFSET   0.240000   0.000000   0.000000
                            CHANNELS 3 Xrotation Yrotation Zrotation
                            End Site
                            {
                                OFFSET   0.116353  -0.002500   0.000000
                            }
                        }
                    }
                }
            }
            JOINT rTorso_Clavicle
            {
                OFFSET  -0.001000   0.157500   0.000000
                CHANNELS 3 Xrotation Yrotation Zrotation
                JOINT rShoulder
                {
                    OFFSET  -0.117647   0.000000   0.000000
                    CHANNELS 3 Xrotation Yrotation Zrotation
                    JOINT rElbow
                    {
                        OFFSET  -0.245000   0.000000   0.000000
                        CHANNELS 3 Xrotation Yrotation Zrotation
                        JOINT rWrist
                        {
                            OFFSET  -0.240000   0.000000   0.000000
                            CHANNELS 3 Xrotation Yrotation Zrotation
                            End Site
                            {
                                OFFSET  -0.116353  -0.002500   0.000000
                            }
                        }
                    }
                }
            }
        }
    }
}
MOTION
Frames: 10
Frame Time:   0.010000
  0.000000   0.000000   0.000000   0.000000   0.000000   0.000000   0.000000   0.000000   0.000000   0.000000   0.000000   0.000000   0.000000   0.000000   0.000000   0.000000   0.000000   0.000000   0.000000   0.000000   0.000000   0.000000   0.000000   0.000000   0.000000   0.000000   0.000000   0.000000   0.000000   0.000000   0.000000   0.000000   0.000000   0.000000   0.000000   0.000000   0.000000   0.000000   0.000000   0.000000   0.000000   0.000000   0.000000   0.000000   0.000000   0.000000   0.000000   0.000000   0.000000   0.000000   0.000000   0.000000   0.000000   0.000000   0.000000   0.000000   0.000000   0.000000   0.000000   0.000000   0.000000   0.000000   0.000000
  1.000000   1.000000   1.000000  77.320176 -67.636377  61.715624 -29.189544  23.119928  19.616522  57.412070   8.471376   5.825377  -1.915532  -7.521228  -7.443649   3.907152  10.044937   2.731689 -17.506798 -19.826972  -1.908984  36.917488  -1.326373   1.479234   3.791848 -18.484567  13.601888  -8.472910   3.743309  -0.870452  -2.159478   6.792396  -6.515153  18.287251  -7.304666  -0.519355  15.414186  -2.266173 -29.959929   5.033867  10.187096 -32.445244  25.331684 -37.418577 -53.150725   5.799981 -44.065791  13.543157   1.408216   2.153964  -7.792448 -12.632416  -1.462504  22.160767  25.647804  34.626102  47.359034 -19.694004  38.845800   3.774262  23.216388  -2.839647 -14.347352
  1.000000   1.000000   1.000000  63.964493 -66.911474  87.818523 -10.192806  40.263102  -1.758286  47.874145   4.700285  -0.503011   0.497107   4.430211  -9.443846  -1.474251  -1.447811  13.465458  -3.823351 -26.317526  -4.769180  35.277322  -6.869194 -12.467552   2.842014  -0.467853  -5.407385   9.653349  10.233771  -3.356615  -9.264912   3.383034  -7.218803  -1.901597  -8.144649  -2.123254  18.612945  -2.463648  -6.385303  12.188766   5.271662 -31.231733  22.228453 -46.586714 -53.430704  -3.468601 -44.822771   1.208455  17.881905   4.238907  -4.591006  -5.519437   6.610459  38.037861  23.327515  28.791260  54.293710  -2.939117  34.384566 -19.193291  18.753758   6.606825 -20.304870
  1.000000   1.000000   1.000000 -83.919521  65.343952  64.034880 -15.250782  28.350151   3.439410  48.149647  11.900415  -4.433549  10.327561  -1.245210  -4.398333   0.402082 -13.729990  -5.320743 -14.988351 -20.051073 -12.963530  39.182673   3.579810   1.108463   5.771339  19.295853  17.617916  18.608843   4.761889  -5.249631   2.975127  -5.475101   2.985250  -2.429730  -8.477719  11.357273  21.954877  -3.523720   6.082064  10.568700  -9.451492 -41.989194  23.941353 -35.188070 -52.191894   0.270378 -54.301272  11.691150   0.318054   8.012903  -5.467130   2.626129  -5.001250  16.363700  17.382840  35.383438  53.882621  -6.494876  42.456288 -17.414663  -5.452152   0.693873 -10.192604
  1.000000   1.000000   1.000000  -7.703876 -33.449023 -11.699480 -24.791604  17.764084  -7.911241  46.998951  -2.191664  10.192224 -10.457241 -13.683624 -13.469209   0.255803   6.518718  -2.618709 -30.042527  -6.779737  -4.866166  38.136799  -4.495786 -10.688546   5.324850  -6.638754  -3.668415   6.953700  14.927771  -2.040514   0.781353   2.835528 -16.718279   6.785722  -4.944485   3.726361  18.740377   8.289633  19.846389  -5.350485 -10.058092 -34.438567  22.829146 -36.856441 -52.483262   5.174793 -37.967175  11.254947  21.550576   5.390351 -11.197185  -5.283927   4.124178  24.659788  22.032868  24.957899  61.094492   2.667745  32.771674 -19.366383  11.360040  -2.014610   0.131616
  1.000000   1.000000   1.000000  13.402348 -48.836271  16.220874 -34.286731  22.569456  -1.046844  42.296777 -11.669236   2.027333  -7.508822  -2.990697  -4.929056  -4.828025   1.798515  -7.086149 -33.658958 -18.491394 -10.917619  38.763937   0.838967  -5.648223  12.306959 -16.176210   3.620738   8.008825   5.243393   1.132263   4.357907   2.883249  -3.015656   4.363858   6.514133   8.363271  13.987696   7.589045   0.333318   0.411177  -1.301818 -37.183884  24.434347 -38.136237 -49.391260  14.242710 -42.381742  12.455280  10.896417  13.296516  -7.946053   7.855063  -5.346548  22.334556  29.574718  29.175647  57.102542  -2.776955  40.390924 -21.076250  18.064231 -11.846157 -15.667526
  1.000000   1.000000   1.000000  11.224617 -74.810349  18.938467 -25.776244  23.466605   9.907675  37.561682   7.375760  17.384370   1.203981   5.999162   1.141669  -3.278584   3.985261  10.548251 -11.255151 -24.872881 -10.438167  47.467140  -6.354340  -6.195506   5.009709 -11.259172   7.816125  -4.645925  -1.781665   1.879244  -5.655920  -0.869323   1.837690  16.660344   4.806553   0.897467  15.614776  10.255874  -3.973234   0.079098   8.407182 -19.479986  13.856360 -34.995900 -55.665279  -7.350895 -37.854295   1.626276   4.644141  -9.043110 -10.347095  -7.031570   7.515886  23.124671  22.402168  36.591967  49.284276 -21.045354  33.144552  -5.979652  10.701054  -7.806161   3.954867
  1.000000   1.000000   1.000000 -16.718835 -53.081571 -22.207146 -29.024414  26.150575   5.737352  35.290676  -4.116496  18.178580   5.972232   3.711542 -12.751801  15.028073   9.894029   9.184154 -13.104351 -22.907175  -7.413119  33.668113  11.397382 -15.042954  15.038836  -9.232629  30.092465   9.961584  -3.672287 -10.144975   5.485460  -9.589043  -3.076193   5.436320 -17.673660  -5.167759  19.451951  19.229213   6.008018  -5.567750   1.304855 -23.085081  17.878699 -43.102246 -53.147389  -0.721614 -53.423455  13.794283   9.283210  10.791863  -3.162496 -14.350056  -6.331142  30.821434  18.655624  38.485919  50.257906  14.670672  47.638590 -22.118867  11.276558 -12.832856   0.558666
  1.000000   1.000000   1.000000  -4.978132  12.043347  13.413642 -28.474097  23.803424   5.576885  51.310064  -0.455332   1.756900  -0.169070  10.851968  -2.982734  -3.627443   0.365250   0.572033 -28.655697 -23.466296 -13.834876  34.155455  -4.404791 -14.558328  21.194202   5.643961   6.838068  -4.806702  -6.494115  10.464928   3.626936   8.933495  -1.022555  -3.047488  -8.634386   4.499521  17.694302   4.851823 -14.153341   6.935138 -11.083760 -21.695595   8.424985 -35.354533 -58.604760  -2.104980 -46.956877  -1.215788  14.185546  -1.489670  -7.419410 -16.183164  -3.477839  14.253210  32.340406  33.944486  52.945984  -2.019083  36.976997  -1.054693  14.996393  13.903939 -12.976267
  1.000000   1.000000   1.000000   2.356159 -31.439181   6.495991 -32.609407  10.540728  -6.065091  47.606708   8.227656  -2.255527  -5.018043   3.803728  -9.775312   0.222937 -12.835513   0.781003 -19.265733 -18.575453 -11.663611  46.008810   9.152497  -3.512468  -5.684200  -3.318709  10.260585  15.392556   4.619633  10.748020   1.101779   3.002000  -0.034171   9.722967  12.580721  -9.021013  15.499653  -2.551709   3.348544  -4.123653   1.289995 -26.745053  19.654952 -37.701161 -57.393721   2.494215 -35.635764  -0.227170  15.884115  -2.618186 -17.448376   0.197583  -0.594402  25.013333  17.763994  30.414457  56.338453  13.887683  49.282549 -24.625908   8.003596   9.808038  -5.803924
